<svg xmlns="http://www.w3.org/2000/svg" viewBox="0 0 320 320">
  <g><g transform="translate(204.95,48.74) rotate(46.0) scale(0.8142857142857143)">
    <path d="M0 0 C -6 -9 -6 -24 0 -32 C 6 -24 6 -9 0 0 Z" fill="#c2a567"></path>
    <path d="M0 -3 L0 -28" stroke="#a8893f" stroke-width="0.9" fill="none"></path></g><g transform="translate(204.95,48.74) rotate(-2.0) scale(0.7491428571428572)">
    <path d="M0 0 C -6 -9 -6 -24 0 -32 C 6 -24 6 -9 0 0 Z" fill="#d8c39a"></path>
    <path d="M0 -3 L0 -28" stroke="#a8893f" stroke-width="0.9" fill="none"></path></g><circle cx="205.0" cy="48.7" r="2.4" fill="#bd8478"></circle><g transform="translate(232.22,64.16) rotate(61.0) scale(0.85)">
    <path d="M0 0 C -6 -9 -6 -24 0 -32 C 6 -24 6 -9 0 0 Z" fill="#d8c39a"></path>
    <path d="M0 -3 L0 -28" stroke="#a8893f" stroke-width="0.9" fill="none"></path></g><g transform="translate(232.22,64.16) rotate(13.0) scale(0.782)">
    <path d="M0 0 C -6 -9 -6 -24 0 -32 C 6 -24 6 -9 0 0 Z" fill="#c2a567"></path>
    <path d="M0 -3 L0 -28" stroke="#a8893f" stroke-width="0.9" fill="none"></path></g><g transform="translate(254.56,86.12) rotate(76.0) scale(0.8857142857142857)">
    <path d="M0 0 C -6 -9 -6 -24 0 -32 C 6 -24 6 -9 0 0 Z" fill="#c2a567"></path>
    <path d="M0 -3 L0 -28" stroke="#a8893f" stroke-width="0.9" fill="none"></path></g><g transform="translate(254.56,86.12) rotate(28.0) scale(0.8148571428571428)">
    <path d="M0 0 C -6 -9 -6 -24 0 -32 C 6 -24 6 -9 0 0 Z" fill="#d8c39a"></path>
    <path d="M0 -3 L0 -28" stroke="#a8893f" stroke-width="0.9" fill="none"></path></g><g transform="translate(270.46,113.11) rotate(91.0) scale(0.9214285714285715)">
    <path d="M0 0 C -6 -9 -6 -24 0 -32 C 6 -24 6 -9 0 0 Z" fill="#d8c39a"></path>
    <path d="M0 -3 L0 -28" stroke="#a8893f" stroke-width="0.9" fill="none"></path></g><g transform="translate(270.46,113.11) rotate(43.0) scale(0.8477142857142858)">
    <path d="M0 0 C -6 -9 -6 -24 0 -32 C 6 -24 6 -9 0 0 Z" fill="#c2a567"></path>
    <path d="M0 -3 L0 -28" stroke="#a8893f" stroke-width="0.9" fill="none"></path></g><circle cx="270.5" cy="113.1" r="2.4" fill="#bd8478"></circle><g transform="translate(278.83,143.30) rotate(106.0) scale(0.9571428571428572)">
    <path d="M0 0 C -6 -9 -6 -24 0 -32 C 6 -24 6 -9 0 0 Z" fill="#c2a567"></path>
    <path d="M0 -3 L0 -28" stroke="#a8893f" stroke-width="0.9" fill="none"></path></g><g transform="translate(278.83,143.30) rotate(58.0) scale(0.8805714285714287)">
    <path d="M0 0 C -6 -9 -6 -24 0 -32 C 6 -24 6 -9 0 0 Z" fill="#d8c39a"></path>
    <path d="M0 -3 L0 -28" stroke="#a8893f" stroke-width="0.9" fill="none"></path></g><g transform="translate(279.11,174.62) rotate(121.0) scale(0.9928571428571429)">
    <path d="M0 0 C -6 -9 -6 -24 0 -32 C 6 -24 6 -9 0 0 Z" fill="#d8c39a"></path>
    <path d="M0 -3 L0 -28" stroke="#a8893f" stroke-width="0.9" fill="none"></path></g><g transform="translate(279.11,174.62) rotate(73.0) scale(0.9134285714285715)">
    <path d="M0 0 C -6 -9 -6 -24 0 -32 C 6 -24 6 -9 0 0 Z" fill="#c2a567"></path>
    <path d="M0 -3 L0 -28" stroke="#a8893f" stroke-width="0.9" fill="none"></path></g><g transform="translate(271.26,204.95) rotate(136.0) scale(0.9714285714285714)">
    <path d="M0 0 C -6 -9 -6 -24 0 -32 C 6 -24 6 -9 0 0 Z" fill="#c2a567"></path>
    <path d="M0 -3 L0 -28" stroke="#a8893f" stroke-width="0.9" fill="none"></path></g><g transform="translate(271.26,204.95) rotate(88.0) scale(0.8937142857142858)">
    <path d="M0 0 C -6 -9 -6 -24 0 -32 C 6 -24 6 -9 0 0 Z" fill="#d8c39a"></path>
    <path d="M0 -3 L0 -28" stroke="#a8893f" stroke-width="0.9" fill="none"></path></g><circle cx="271.3" cy="205.0" r="2.4" fill="#bd8478"></circle><g transform="translate(255.84,232.22) rotate(151.0) scale(0.9357142857142857)">
    <path d="M0 0 C -6 -9 -6 -24 0 -32 C 6 -24 6 -9 0 0 Z" fill="#d8c39a"></path>
    <path d="M0 -3 L0 -28" stroke="#a8893f" stroke-width="0.9" fill="none"></path></g><g transform="translate(255.84,232.22) rotate(103.0) scale(0.8608571428571429)">
    <path d="M0 0 C -6 -9 -6 -24 0 -32 C 6 -24 6 -9 0 0 Z" fill="#c2a567"></path>
    <path d="M0 -3 L0 -28" stroke="#a8893f" stroke-width="0.9" fill="none"></path></g><g transform="translate(233.88,254.56) rotate(166.0) scale(0.9)">
    <path d="M0 0 C -6 -9 -6 -24 0 -32 C 6 -24 6 -9 0 0 Z" fill="#c2a567"></path>
    <path d="M0 -3 L0 -28" stroke="#a8893f" stroke-width="0.9" fill="none"></path></g><g transform="translate(233.88,254.56) rotate(118.0) scale(0.8280000000000001)">
    <path d="M0 0 C -6 -9 -6 -24 0 -32 C 6 -24 6 -9 0 0 Z" fill="#d8c39a"></path>
    <path d="M0 -3 L0 -28" stroke="#a8893f" stroke-width="0.9" fill="none"></path></g><g transform="translate(206.89,270.46) rotate(181.0) scale(0.8642857142857143)">
    <path d="M0 0 C -6 -9 -6 -24 0 -32 C 6 -24 6 -9 0 0 Z" fill="#d8c39a"></path>
    <path d="M0 -3 L0 -28" stroke="#a8893f" stroke-width="0.9" fill="none"></path></g><g transform="translate(206.89,270.46) rotate(133.0) scale(0.7951428571428573)">
    <path d="M0 0 C -6 -9 -6 -24 0 -32 C 6 -24 6 -9 0 0 Z" fill="#c2a567"></path>
    <path d="M0 -3 L0 -28" stroke="#a8893f" stroke-width="0.9" fill="none"></path></g><circle cx="206.9" cy="270.5" r="2.4" fill="#bd8478"></circle><g transform="translate(176.70,278.83) rotate(196.0) scale(0.8285714285714285)">
    <path d="M0 0 C -6 -9 -6 -24 0 -32 C 6 -24 6 -9 0 0 Z" fill="#c2a567"></path>
    <path d="M0 -3 L0 -28" stroke="#a8893f" stroke-width="0.9" fill="none"></path></g><g transform="translate(176.70,278.83) rotate(148.0) scale(0.7622857142857142)">
    <path d="M0 0 C -6 -9 -6 -24 0 -32 C 6 -24 6 -9 0 0 Z" fill="#d8c39a"></path>
    <path d="M0 -3 L0 -28" stroke="#a8893f" stroke-width="0.9" fill="none"></path></g><g transform="translate(115.05,48.74) rotate(2.0) scale(0.8142857142857143)">
    <path d="M0 0 C -6 -9 -6 -24 0 -32 C 6 -24 6 -9 0 0 Z" fill="#c2a567"></path>
    <path d="M0 -3 L0 -28" stroke="#a8893f" stroke-width="0.9" fill="none"></path></g><g transform="translate(115.05,48.74) rotate(-46.0) scale(0.7491428571428572)">
    <path d="M0 0 C -6 -9 -6 -24 0 -32 C 6 -24 6 -9 0 0 Z" fill="#d8c39a"></path>
    <path d="M0 -3 L0 -28" stroke="#a8893f" stroke-width="0.9" fill="none"></path></g><circle cx="115.0" cy="48.7" r="2.4" fill="#bd8478"></circle><g transform="translate(87.78,64.16) rotate(-13.0) scale(0.85)">
    <path d="M0 0 C -6 -9 -6 -24 0 -32 C 6 -24 6 -9 0 0 Z" fill="#d8c39a"></path>
    <path d="M0 -3 L0 -28" stroke="#a8893f" stroke-width="0.9" fill="none"></path></g><g transform="translate(87.78,64.16) rotate(-61.0) scale(0.782)">
    <path d="M0 0 C -6 -9 -6 -24 0 -32 C 6 -24 6 -9 0 0 Z" fill="#c2a567"></path>
    <path d="M0 -3 L0 -28" stroke="#a8893f" stroke-width="0.9" fill="none"></path></g><g transform="translate(65.44,86.12) rotate(-28.0) scale(0.8857142857142857)">
    <path d="M0 0 C -6 -9 -6 -24 0 -32 C 6 -24 6 -9 0 0 Z" fill="#c2a567"></path>
    <path d="M0 -3 L0 -28" stroke="#a8893f" stroke-width="0.9" fill="none"></path></g><g transform="translate(65.44,86.12) rotate(-76.0) scale(0.8148571428571428)">
    <path d="M0 0 C -6 -9 -6 -24 0 -32 C 6 -24 6 -9 0 0 Z" fill="#d8c39a"></path>
    <path d="M0 -3 L0 -28" stroke="#a8893f" stroke-width="0.9" fill="none"></path></g><g transform="translate(49.54,113.11) rotate(-43.0) scale(0.9214285714285715)">
    <path d="M0 0 C -6 -9 -6 -24 0 -32 C 6 -24 6 -9 0 0 Z" fill="#d8c39a"></path>
    <path d="M0 -3 L0 -28" stroke="#a8893f" stroke-width="0.9" fill="none"></path></g><g transform="translate(49.54,113.11) rotate(-91.0) scale(0.8477142857142858)">
    <path d="M0 0 C -6 -9 -6 -24 0 -32 C 6 -24 6 -9 0 0 Z" fill="#c2a567"></path>
    <path d="M0 -3 L0 -28" stroke="#a8893f" stroke-width="0.9" fill="none"></path></g><circle cx="49.5" cy="113.1" r="2.4" fill="#bd8478"></circle><g transform="translate(41.17,143.30) rotate(-58.0) scale(0.9571428571428572)">
    <path d="M0 0 C -6 -9 -6 -24 0 -32 C 6 -24 6 -9 0 0 Z" fill="#c2a567"></path>
    <path d="M0 -3 L0 -28" stroke="#a8893f" stroke-width="0.9" fill="none"></path></g><g transform="translate(41.17,143.30) rotate(-106.0) scale(0.8805714285714287)">
    <path d="M0 0 C -6 -9 -6 -24 0 -32 C 6 -24 6 -9 0 0 Z" fill="#d8c39a"></path>
    <path d="M0 -3 L0 -28" stroke="#a8893f" stroke-width="0.9" fill="none"></path></g><g transform="translate(40.89,174.62) rotate(-73.0) scale(0.9928571428571429)">
    <path d="M0 0 C -6 -9 -6 -24 0 -32 C 6 -24 6 -9 0 0 Z" fill="#d8c39a"></path>
    <path d="M0 -3 L0 -28" stroke="#a8893f" stroke-width="0.9" fill="none"></path></g><g transform="translate(40.89,174.62) rotate(-121.0) scale(0.9134285714285715)">
    <path d="M0 0 C -6 -9 -6 -24 0 -32 C 6 -24 6 -9 0 0 Z" fill="#c2a567"></path>
    <path d="M0 -3 L0 -28" stroke="#a8893f" stroke-width="0.9" fill="none"></path></g><g transform="translate(48.74,204.95) rotate(-88.0) scale(0.9714285714285714)">
    <path d="M0 0 C -6 -9 -6 -24 0 -32 C 6 -24 6 -9 0 0 Z" fill="#c2a567"></path>
    <path d="M0 -3 L0 -28" stroke="#a8893f" stroke-width="0.9" fill="none"></path></g><g transform="translate(48.74,204.95) rotate(-136.0) scale(0.8937142857142858)">
    <path d="M0 0 C -6 -9 -6 -24 0 -32 C 6 -24 6 -9 0 0 Z" fill="#d8c39a"></path>
    <path d="M0 -3 L0 -28" stroke="#a8893f" stroke-width="0.9" fill="none"></path></g><circle cx="48.7" cy="205.0" r="2.4" fill="#bd8478"></circle><g transform="translate(64.16,232.22) rotate(-103.0) scale(0.9357142857142857)">
    <path d="M0 0 C -6 -9 -6 -24 0 -32 C 6 -24 6 -9 0 0 Z" fill="#d8c39a"></path>
    <path d="M0 -3 L0 -28" stroke="#a8893f" stroke-width="0.9" fill="none"></path></g><g transform="translate(64.16,232.22) rotate(-151.0) scale(0.8608571428571429)">
    <path d="M0 0 C -6 -9 -6 -24 0 -32 C 6 -24 6 -9 0 0 Z" fill="#c2a567"></path>
    <path d="M0 -3 L0 -28" stroke="#a8893f" stroke-width="0.9" fill="none"></path></g><g transform="translate(86.12,254.56) rotate(-118.0) scale(0.9)">
    <path d="M0 0 C -6 -9 -6 -24 0 -32 C 6 -24 6 -9 0 0 Z" fill="#c2a567"></path>
    <path d="M0 -3 L0 -28" stroke="#a8893f" stroke-width="0.9" fill="none"></path></g><g transform="translate(86.12,254.56) rotate(-166.0) scale(0.8280000000000001)">
    <path d="M0 0 C -6 -9 -6 -24 0 -32 C 6 -24 6 -9 0 0 Z" fill="#d8c39a"></path>
    <path d="M0 -3 L0 -28" stroke="#a8893f" stroke-width="0.9" fill="none"></path></g><g transform="translate(113.11,270.46) rotate(-133.0) scale(0.8642857142857143)">
    <path d="M0 0 C -6 -9 -6 -24 0 -32 C 6 -24 6 -9 0 0 Z" fill="#d8c39a"></path>
    <path d="M0 -3 L0 -28" stroke="#a8893f" stroke-width="0.9" fill="none"></path></g><g transform="translate(113.11,270.46) rotate(-181.0) scale(0.7951428571428573)">
    <path d="M0 0 C -6 -9 -6 -24 0 -32 C 6 -24 6 -9 0 0 Z" fill="#c2a567"></path>
    <path d="M0 -3 L0 -28" stroke="#a8893f" stroke-width="0.9" fill="none"></path></g><circle cx="113.1" cy="270.5" r="2.4" fill="#bd8478"></circle><g transform="translate(143.30,278.83) rotate(-148.0) scale(0.8285714285714285)">
    <path d="M0 0 C -6 -9 -6 -24 0 -32 C 6 -24 6 -9 0 0 Z" fill="#c2a567"></path>
    <path d="M0 -3 L0 -28" stroke="#a8893f" stroke-width="0.9" fill="none"></path></g><g transform="translate(143.30,278.83) rotate(-196.0) scale(0.7622857142857142)">
    <path d="M0 0 C -6 -9 -6 -24 0 -32 C 6 -24 6 -9 0 0 Z" fill="#d8c39a"></path>
    <path d="M0 -3 L0 -28" stroke="#a8893f" stroke-width="0.9" fill="none"></path></g></g>
  
  <g stroke="#c2a567" stroke-width="2.2" fill="none" stroke-linecap="round">
    <path d="M160 286 C150 300 150 314 140 326"></path>
    <path d="M160 286 C170 300 170 314 180 326"></path>
    <path d="M160 284 C152 290 152 298 160 302 C168 298 168 290 160 284 Z" fill="#d8c39a" stroke-width="1.6"></path>
  </g>
  <g><g transform="translate(160,38) scale(1.15)">
    <circle r="11" fill="#efd8d0"></circle>
    <circle r="11" fill="none" stroke="#bd8478" stroke-width="1.1"></circle>
    <path d="M-7 1 A7 7 0 0 1 7 1" fill="none" stroke="#bd8478" stroke-width="1.1"></path>
    <path d="M-4 3 A4 4 0 0 1 4 3" fill="none" stroke="#bd8478" stroke-width="1"></path>
    <circle r="2.6" fill="#c2a567"></circle></g><g transform="translate(128.96937252803988,47.56451284688042) scale(0.85)">
    <circle r="11" fill="#efd8d0"></circle>
    <circle r="11" fill="none" stroke="#bd8478" stroke-width="1.1"></circle>
    <path d="M-7 1 A7 7 0 0 1 7 1" fill="none" stroke="#bd8478" stroke-width="1.1"></path>
    <path d="M-4 3 A4 4 0 0 1 4 3" fill="none" stroke="#bd8478" stroke-width="1"></path>
    <circle r="2.6" fill="#c2a567"></circle></g><g transform="translate(191.03062747196012,47.56451284688042) scale(0.85)">
    <circle r="11" fill="#efd8d0"></circle>
    <circle r="11" fill="none" stroke="#bd8478" stroke-width="1.1"></circle>
    <path d="M-7 1 A7 7 0 0 1 7 1" fill="none" stroke="#bd8478" stroke-width="1.1"></path>
    <path d="M-4 3 A4 4 0 0 1 4 3" fill="none" stroke="#bd8478" stroke-width="1"></path>
    <circle r="2.6" fill="#c2a567"></circle></g><g transform="translate(118.97,53.56) rotate(-55.0) scale(0.7)">
    <path d="M0 0 C -6 -9 -6 -24 0 -32 C 6 -24 6 -9 0 0 Z" fill="#c2a567"></path>
    <path d="M0 -3 L0 -28" stroke="#a8893f" stroke-width="0.9" fill="none"></path></g><g transform="translate(201.03,53.56) rotate(55.0) scale(0.7)">
    <path d="M0 0 C -6 -9 -6 -24 0 -32 C 6 -24 6 -9 0 0 Z" fill="#c2a567"></path>
    <path d="M0 -3 L0 -28" stroke="#a8893f" stroke-width="0.9" fill="none"></path></g></g>
</svg>